<svg xmlns="http://www.w3.org/2000/svg" viewBox="0 0 200 60" role="img" aria-labelledby="c1h-title c1h-desc">
  <title id="c1h-title">HashA2A Logo — Concept 1 Horizontal</title>
  <desc id="c1h-desc">Hexagonal network icon with HashA2A wordmark</desc>
  <defs>
    <linearGradient id="c1-brand" x1="0%" y1="0%" x2="100%" y2="100%">
      <stop offset="0%" stop-color="#3b82f6"/>
      <stop offset="100%" stop-color="#8b5cf6"/>
    </linearGradient>
    <linearGradient id="c1-accent" x1="0%" y1="0%" x2="100%" y2="100%">
      <stop offset="0%" stop-color="#06b6d4"/>
      <stop offset="100%" stop-color="#3b82f6"/>
    </linearGradient>
  </defs>
  <g id="icon">
    <polygon points="30,4 52,16 52,40 30,52 8,40 8,16" fill="none" stroke="url(#c1-brand)" stroke-width="2.5" stroke-linejoin="round"/>
    <polygon points="30,14 44,22 44,36 30,44 16,36 16,22" fill="url(#c1-brand)" opacity="0.12"/>
    <circle cx="30" cy="14" r="3" fill="#3b82f6"/>
    <circle cx="44" cy="22" r="3" fill="#6366f1"/>
    <circle cx="44" cy="36" r="3" fill="#8b5cf6"/>
    <circle cx="30" cy="44" r="3" fill="#06b6d4"/>
    <circle cx="16" cy="36" r="3" fill="#3b82f6"/>
    <circle cx="16" cy="22" r="3" fill="#6366f1"/>
    <circle cx="30" cy="28" r="4" fill="white" opacity="0.9"/>
    <line x1="30" y1="14" x2="30" y2="24" stroke="white" stroke-opacity="0.4" stroke-width="1.5"/>
    <line x1="44" y1="22" x2="34" y2="26" stroke="white" stroke-opacity="0.4" stroke-width="1.5"/>
    <line x1="44" y1="36" x2="34" y2="30" stroke="white" stroke-opacity="0.4" stroke-width="1.5"/>
    <line x1="30" y1="44" x2="30" y2="32" stroke="white" stroke-opacity="0.4" stroke-width="1.5"/>
    <line x1="16" y1="36" x2="26" y2="30" stroke="white" stroke-opacity="0.4" stroke-width="1.5"/>
    <line x1="16" y1="22" x2="26" y2="26" stroke="white" stroke-opacity="0.4" stroke-width="1.5"/>
  </g>
  <g id="wordmark">
    <text x="64" y="36" font-family="'Inter', -apple-system, sans-serif" font-size="22" font-weight="800" letter-spacing="-0.02em">
      <tspan fill="#3b82f6">Hash</tspan><tspan fill="#8b5cf6">A2A</tspan>
    </text>
  </g>
</svg>
